# xmcd
#
# Track frame offsets:
#   150
#   23419
#   47584
#   67339
#   85567
#   104382
#   132016
#   148288
#   166117
#   192321
#   215706
#   239787
#   259507
#   277726
#   296381
#   324025
#
# Disc length: 4535 seconds
#
# Revision: 0
# Processed by: cddbd v1.5.2PL0 Copyright (c) Steve Scherf et al.
# Submitted via: uFREEDB ActiveX Control 1.5
#
DISCID=e111b510
DTITLE=Marcos Antonio and Reginalda - Vencer ou Vencer
DYEAR=2008
DGENRE=Christian Church
TTITLE0=A oração
TTITLE1=Deus vai operar
TTITLE2=Vencer ou vencer
TTITLE3=Vencedor
TTITLE4=Sem Deus é impossível
TTITLE5=Há uma saída
TTITLE6=Debaixo da benção
TTITLE7=Deus opera quando quer
TTITLE8=Rosa de sarom
TTITLE9=10 PB
TTITLE10=11 PB
TTITLE11=12 PB
TTITLE12=13 PB
TTITLE13=14 PB
TTITLE14=15 PB
TTITLE15=16 PB
EXTD=
EXTT0=
EXTT1=
EXTT2=
EXTT3=
EXTT4=
EXTT5=
EXTT6=
EXTT7=
EXTT8=
EXTT9=
EXTT10=
EXTT11=
EXTT12=
EXTT13=
EXTT14=
EXTT15=
PLAYORDER=
